<?xml version="1.0" encoding="UTF-8"?>
<svg width="16px" height="16px" viewBox="0 0 16 16" version="1.1" xmlns="http://www.w3.org/2000/svg" xmlns:xlink="http://www.w3.org/1999/xlink">
    <title>编组 7</title>
    <g id="组件规则第二版" stroke="none" stroke-width="1" fill="none" fill-rule="evenodd">
        <g id="05.黑白版对比备份" transform="translate(-1821.000000, -205.000000)">
            <g id="编组-24备份-4" transform="translate(1817.000000, 201.000000)">
                <g id="编组-7" transform="translate(4.000000, 4.000000)">
                    <rect id="矩形" x="0" y="0" width="16" height="16"></rect>
                    <g id="编组" transform="translate(6.000000, 3.800000)" fill="#333333" fill-rule="nonzero">
                        <path d="M-0.494974747,-0.494974747 C-0.248944443,-0.741005051 0.13466313,-0.765608081 0.408208888,-0.568783838 L0.494974747,-0.494974747 L4.69497475,3.70502525 C4.94100505,3.95105556 4.96560808,4.33466313 4.76878384,4.60820889 L4.69497475,4.69497475 L0.494974747,8.89497475 C0.221607743,9.16834175 -0.221607743,9.16834175 -0.494974747,8.89497475 C-0.741005051,8.64894444 -0.765608081,8.26533687 -0.568783838,7.99179111 L-0.494974747,7.90502525 L3.211,4.2 L-0.494974747,0.494974747 C-0.741005051,0.248944443 -0.765608081,-0.13466313 -0.568783838,-0.408208888 L-0.494974747,-0.494974747 Z" id="路径"></path>
                    </g>
                </g>
            </g>
        </g>
    </g>
</svg> 