<?xml version="1.0" encoding="UTF-8"?>
<svg width="12px" height="12px" viewBox="0 0 12 12" version="1.1" xmlns="http://www.w3.org/2000/svg" xmlns:xlink="http://www.w3.org/1999/xlink">
    <title>编组 32</title>
    <g id="页面-1" stroke="none" stroke-width="1" fill="none" fill-rule="evenodd">
        <g id="01.表格增加升降序及搜索功能-light" transform="translate(-735.000000, -1202.000000)">
            <g id="编组-28备份-3" transform="translate(34.000000, 1146.000000)">
                <g id="编组-26" transform="translate(20.000000, 48.000000)">
                    <g id="编组-8" transform="translate(607.000000, 0.000000)">
                        <g id="编组-37" transform="translate(44.000000, 1.000000)">
                            <g id="编组-32" transform="translate(30.000000, 7.000000)">
                                <rect id="矩形" x="0" y="0" width="12" height="12"></rect>
                                <g id="编组" transform="translate(0.800000, 0.700000)" fill="#313438" fill-rule="nonzero">
                                    <path d="M4.85,7.28306304e-13 C7.52857085,7.28306304e-13 9.7,2.17142915 9.7,4.85 C9.7,5.97324227 9.31815574,7.00730404 8.67719397,7.82945855 L10.4509891,9.60248593 C10.6853036,9.83680051 10.6853036,10.2166995 10.4509891,10.4510141 C10.2427094,10.6592937 9.91940017,10.6824359 9.6855584,10.5204406 L9.60246093,10.4510141 L7.82945855,8.67719397 C7.00730404,9.31815574 5.97324227,9.7 4.85,9.7 C2.17142915,9.7 -1.81188398e-13,7.52857085 -1.81188398e-13,4.85 C-1.81188398e-13,2.17142915 2.17142915,7.28306304e-13 4.85,7.28306304e-13 Z M4.85,1.2 C2.83417085,1.2 1.2,2.83417085 1.2,4.85 C1.2,6.86582915 2.83417085,8.5 4.85,8.5 C6.86582915,8.5 8.5,6.86582915 8.5,4.85 C8.5,2.83417085 6.86582915,1.2 4.85,1.2 Z" id="形状结合"></path>
                                </g>
                            </g>
                        </g>
                    </g>
                </g>
            </g>
        </g>
    </g>
</svg>