<?xml version="1.0" encoding="UTF-8"?>
<svg width="12px" height="12px" viewBox="0 0 12 12" version="1.1" xmlns="http://www.w3.org/2000/svg" xmlns:xlink="http://www.w3.org/1999/xlink">
    <title>编组 39备份</title>
    <g id="页面-1" stroke="none" stroke-width="1" fill="none" fill-rule="evenodd">
        <g id="01.表格增加升降序及搜索功能-light" transform="translate(-535.000000, -2372.000000)">
            <g id="编组-28备份" transform="translate(34.000000, 2316.000000)">
                <g id="编组-26" transform="translate(20.000000, 48.000000)">
                    <g id="编组-8" transform="translate(391.000000, 0.000000)">
                        <g id="编组-37" transform="translate(60.000000, 1.000000)">
                            <g id="编组-39备份" transform="translate(30.000000, 7.000000)">
                                <rect id="矩形" x="0" y="0" width="12" height="12"></rect>
                                <path d="M10.3,1 C10.6543827,1 10.9472582,1.26334362 10.9936098,1.60501415 L11,1.7 L11,3.17888974 C11,3.50070469 10.8592695,3.80388888 10.6190784,4.01132891 L10.5101702,4.09414507 L8,5.767 L8,10.5 L7,10.5 L7,5.23240812 L9.95547002,3.26209477 C9.9740166,3.24973039 9.98762551,3.23173198 9.99463738,3.2112001 L10,3.17888974 L10,2 L2,2 L2,3.17888974 C2,3.20117996 2.00742672,3.22248698 2.02062079,3.23971025 L2.04452998,3.26209477 L5,5.23240812 L5,9 L4,9 L4,5.768 L1.48982978,4.09414507 C1.22206357,3.91563426 1.0478623,3.63036308 1.00849583,3.31544496 L1,3.17888974 L1,1.7 C1,1.34561729 1.26334362,1.05274177 1.60501415,1.00639017 L1.7,1 L10.3,1 Z" id="路径-21" fill="#313438" fill-rule="nonzero"></path>
                            </g>
                        </g>
                    </g>
                </g>
            </g>
        </g>
    </g>
</svg>