<svg width="32" height="16" viewBox="0 0 32 16" fill="none" xmlns="http://www.w3.org/2000/svg">
<g clip-path="url(#clip0_246_5399)">
<path opacity="0.25" fill-rule="evenodd" clip-rule="evenodd" d="M0 4C0 1.79086 1.79086 0 4 0L28 0C30.2091 0 32 1.79086 32 4V12C32 14.2091 30.2091 16 28 16H4C1.79086 16 0 14.2091 0 12V4Z" fill="#FF621E"/>
<path d="M5.21875 14.0078C5.20703 13.9766 5.18945 13.9258 5.16602 13.8555C5.04883 13.5352 4.96094 13.3027 4.90234 13.1582C6.83203 12.959 8.32031 12.6582 9.36719 12.2559C8.95312 12.123 8.32422 11.9238 7.48047 11.6582C7.03516 11.5215 6.70117 11.418 6.47852 11.3477C6.79883 10.9805 7.11523 10.5898 7.42773 10.1758H4.62109V9.4375H7.97852C8.20898 9.11719 8.44336 8.76758 8.68164 8.38867L9.63672 8.57617C9.40625 8.93555 9.21094 9.22266 9.05078 9.4375H15.3496V10.1758H13.082C12.6055 10.9844 12.0488 11.625 11.4121 12.0977C12.8145 12.5117 13.9492 12.8516 14.8164 13.1172L14.4473 13.9316C13.8145 13.7129 12.8828 13.4004 11.6523 12.9941C11.1602 12.8301 10.793 12.707 10.5508 12.625C9.93359 12.9531 9.19336 13.2285 8.33008 13.4512C7.4707 13.6738 6.43359 13.8594 5.21875 14.0078ZM10.3516 11.7754C11.043 11.373 11.5996 10.8398 12.0215 10.1758H8.48828C8.27344 10.457 8.04102 10.7441 7.79102 11.0371C8.58398 11.2598 9.4375 11.5059 10.3516 11.7754ZM5.47656 8.27734V5.35938H8.20703V4.16992H4.97852V3.43164H15.0215V4.16992H11.7695V5.35938H14.5234V8.27734H5.47656ZM6.29102 7.55078H8.20703V6.10352H6.29102V7.55078ZM9.03906 7.55078H10.9375V6.10352H9.03906V7.55078ZM11.7695 7.55078H13.709V6.10352H11.7695V7.55078ZM9.03906 5.35938H10.9375V4.16992H9.03906V5.35938Z" fill="#FF621E"/>
<path d="M17.1309 13.9551V5.32422H17.9805V13.9551H17.1309ZM24.4668 13.8672C24.4199 13.6016 24.3555 13.3145 24.2734 13.0059C24.3555 13.0098 24.4551 13.0156 24.5723 13.0234C24.8223 13.0391 25.0605 13.0469 25.2871 13.0469C25.5566 13.0469 25.7441 12.9902 25.8496 12.877C25.9551 12.7637 26.0078 12.5566 26.0078 12.2559V4.33984H20.4473V3.52539H26.8574V12.3555C26.8574 12.875 26.7617 13.2461 26.5703 13.4688C26.375 13.6953 26.0332 13.8203 25.5449 13.8438C25.2754 13.8594 24.916 13.8672 24.4668 13.8672ZM23.459 13.0586V11.6758C22.1035 11.7461 20.5098 11.8418 18.6777 11.9629L18.6191 11.1719C19.1035 11.1562 19.4688 11.1406 19.7148 11.125V6.33203H18.8242V5.62305H25.1406V6.33203H24.25V10.8906L25.2871 10.8145C25.2715 11.1113 25.2637 11.3672 25.2637 11.582C25.041 11.5977 24.7031 11.6133 24.25 11.6289V13.0586H23.459ZM20.5176 11.0898L23.459 10.9258V9.88281H20.5176V11.0898ZM20.5176 9.20312H23.459V8.10742H20.5176V9.20312ZM20.5176 7.42773H23.459V6.33203H20.5176V7.42773ZM18.9473 5.07812C18.6582 4.71094 18.2148 4.1875 17.6172 3.50781C17.5859 3.47266 17.5625 3.44727 17.5469 3.43164L18.2266 2.91016C18.8477 3.55078 19.3359 4.07227 19.6914 4.47461L18.9473 5.07812Z" fill="#FF621E"/>
</g>
<defs>
<clipPath id="clip0_246_5399">
<rect width="32" height="16" fill="white"/>
</clipPath>
</defs>
</svg> 